<svg xmlns="http://www.w3.org/2000/svg" viewBox="0 0 800 600" fill="none" role="img" aria-label="Cartoon accessibility testing and inclusive design validation">
  <rect width="800" height="600" fill="#ecfdf5"/>
  <circle cx="640" cy="120" r="50" fill="#a7f3d0" opacity="0.55"/>
  <circle cx="130" cy="490" r="70" fill="#6ee7b7" opacity="0.34"/>
  <ellipse cx="400" cy="525" rx="285" ry="28" fill="#059669" opacity="0.12"/>

  <!-- web screen -->
  <rect x="250" y="210" width="300" height="210" rx="16" fill="#ffffff" stroke="#10b981" stroke-width="4"/>
  <rect x="250" y="210" width="300" height="28" rx="16" fill="#047857"/>
  <rect x="250" y="226" width="300" height="12" fill="#047857"/>
  <circle cx="270" cy="224" r="5" fill="#fca5a5"/>
  <circle cx="286" cy="224" r="5" fill="#fde047"/>
  <circle cx="302" cy="224" r="5" fill="#86efac"/>
  <rect x="270" y="256" width="120" height="10" rx="5" fill="#059669"/>
  <rect x="270" y="278" width="180" height="8" rx="4" fill="#d1fae5"/>
  <rect x="270" y="296" width="150" height="8" rx="4" fill="#d1fae5"/>
  <rect x="270" y="324" width="96" height="28" rx="8" fill="#10b981"/>
  <rect x="280" y="334" width="44" height="8" rx="4" fill="#ecfdf5"/>
  <rect x="390" y="324" width="120" height="70" rx="10" fill="#d1fae5"/>
  <rect x="404" y="338" width="92" height="8" rx="4" fill="#a7f3d0"/>
  <rect x="404" y="354" width="72" height="8" rx="4" fill="#a7f3d0"/>
  <rect x="404" y="370" width="56" height="8" rx="4" fill="#a7f3d0"/>

  <!-- mobile screen -->
  <rect x="570" y="260" width="92" height="160" rx="16" fill="#ffffff" stroke="#10b981" stroke-width="4"/>
  <rect x="586" y="276" width="60" height="8" rx="4" fill="#059669"/>
  <rect x="586" y="294" width="48" height="48" rx="8" fill="#d1fae5"/>
  <rect x="598" y="306" width="24" height="24" rx="6" fill="#10b981"/>
  <rect x="586" y="352" width="60" height="8" rx="4" fill="#a7f3d0"/>
  <rect x="586" y="368" width="44" height="8" rx="4" fill="#a7f3d0"/>
  <circle cx="616" cy="400" r="6" fill="#047857"/>

  <!-- keyboard -->
  <rect x="250" y="440" width="220" height="56" rx="12" fill="#ffffff" stroke="#10b981" stroke-width="4"/>
  <rect x="264" y="454" width="18" height="14" rx="3" fill="#d1fae5"/>
  <rect x="288" y="454" width="18" height="14" rx="3" fill="#10b981"/>
  <rect x="312" y="454" width="18" height="14" rx="3" fill="#d1fae5"/>
  <rect x="336" y="454" width="18" height="14" rx="3" fill="#d1fae5"/>
  <rect x="360" y="454" width="18" height="14" rx="3" fill="#d1fae5"/>
  <rect x="384" y="454" width="18" height="14" rx="3" fill="#d1fae5"/>
  <rect x="408" y="454" width="48" height="14" rx="3" fill="#059669"/>
  <rect x="264" y="474" width="192" height="10" rx="3" fill="#a7f3d0"/>

  <!-- WCAG checklist -->
  <rect x="120" y="240" width="110" height="150" rx="14" fill="#ffffff" stroke="#10b981" stroke-width="4"/>
  <rect x="140" y="262" width="56" height="8" rx="4" fill="#059669"/>
  <rect x="140" y="280" width="70" height="6" rx="3" fill="#d1fae5"/>
  <circle cx="148" cy="308" r="10" fill="#10b981"/>
  <path d="M144 308l3 3 6-7" stroke="#fff" stroke-width="2.5" stroke-linecap="round" stroke-linejoin="round"/>
  <rect x="164" y="302" width="48" height="6" rx="3" fill="#a7f3d0"/>
  <circle cx="148" cy="332" r="10" fill="#10b981"/>
  <path d="M144 332l3 3 6-7" stroke="#fff" stroke-width="2.5" stroke-linecap="round" stroke-linejoin="round"/>
  <rect x="164" y="326" width="40" height="6" rx="3" fill="#a7f3d0"/>
  <circle cx="148" cy="356" r="10" fill="#10b981"/>
  <path d="M144 356l3 3 6-7" stroke="#fff" stroke-width="2.5" stroke-linecap="round" stroke-linejoin="round"/>
  <rect x="164" y="350" width="52" height="6" rx="3" fill="#a7f3d0"/>

  <!-- accessibility symbol -->
  <circle cx="170" cy="170" r="44" fill="#ffffff" stroke="#10b981" stroke-width="4"/>
  <circle cx="170" cy="152" r="8" fill="#047857"/>
  <path d="M170 164v34" stroke="#047857" stroke-width="6" stroke-linecap="round"/>
  <path d="M152 176h36" stroke="#047857" stroke-width="6" stroke-linecap="round"/>
  <path d="M152 198c10 10 26 10 36 0" stroke="#047857" stroke-width="6" stroke-linecap="round"/>

  <!-- person with headphones / screen reader -->
  <circle cx="500" cy="170" r="34" fill="#f5cba7"/>
  <path d="M466 204c8 34 60 34 68 0" fill="#059669"/>
  <circle cx="488" cy="164" r="4" fill="#1f2937"/>
  <circle cx="512" cy="164" r="4" fill="#1f2937"/>
  <path d="M494 178c6 4 16 4 22 0" stroke="#b45309" stroke-width="3" stroke-linecap="round"/>
  <path d="M484 138c0-18 16-28 32-22 12 4 18 18 12 32" fill="#374151"/>
  <rect x="452" y="158" width="18" height="28" rx="8" fill="#047857"/>
  <rect x="530" y="158" width="18" height="28" rx="8" fill="#047857"/>
  <path d="M460 172c-8 8-8 20 0 28" stroke="#065f46" stroke-width="4" stroke-linecap="round"/>
  <path d="M540 172c8 8 8 20 0 28" stroke="#065f46" stroke-width="4" stroke-linecap="round"/>

  <!-- color contrast swatches -->
  <rect x="620" y="170" width="110" height="56" rx="14" fill="#ffffff" stroke="#10b981" stroke-width="4"/>
  <rect x="636" y="186" width="24" height="24" rx="6" fill="#047857"/>
  <rect x="668" y="186" width="24" height="24" rx="6" fill="#ecfdf5" stroke="#10b981" stroke-width="2"/>
  <rect x="700" y="186" width="14" height="24" rx="4" fill="#1f2937"/>
  <rect x="636" y="214" width="78" height="6" rx="3" fill="#d1fae5"/>
</svg>
