<svg xmlns="http://www.w3.org/2000/svg" viewBox="0 0 800 600" fill="none" role="img" aria-label="Cartoon QA team collaborating">
  <rect width="800" height="600" fill="#ecfdf5"/>
  <circle cx="620" cy="120" r="48" fill="#a7f3d0" opacity="0.55"/>
  <circle cx="140" cy="480" r="72" fill="#6ee7b7" opacity="0.35"/>
  <ellipse cx="400" cy="520" rx="280" ry="28" fill="#059669" opacity="0.12"/>

  <!-- desk -->
  <rect x="170" y="360" width="460" height="18" rx="9" fill="#047857"/>
  <rect x="190" y="378" width="24" height="90" rx="6" fill="#065f46"/>
  <rect x="586" y="378" width="24" height="90" rx="6" fill="#065f46"/>

  <!-- laptop -->
  <rect x="330" y="300" width="180" height="110" rx="12" fill="#064e3b"/>
  <rect x="342" y="312" width="156" height="86" rx="8" fill="#ecfdf5"/>
  <rect x="360" y="332" width="52" height="8" rx="4" fill="#10b981"/>
  <rect x="360" y="348" width="88" height="6" rx="3" fill="#a7f3d0"/>
  <rect x="360" y="362" width="72" height="6" rx="3" fill="#a7f3d0"/>
  <path d="M318 410h224l-18 16H336l-18-16z" fill="#047857"/>
  <circle cx="430" cy="404" r="4" fill="#34d399"/>

  <!-- checklist card -->
  <rect x="250" y="250" width="110" height="130" rx="14" fill="#ffffff" stroke="#10b981" stroke-width="4"/>
  <rect x="270" y="272" width="52" height="8" rx="4" fill="#059669"/>
  <rect x="270" y="296" width="70" height="6" rx="3" fill="#d1fae5"/>
  <rect x="270" y="316" width="58" height="6" rx="3" fill="#d1fae5"/>
  <circle cx="278" cy="346" r="10" fill="#10b981"/>
  <path d="M274 346l3 3 6-7" stroke="#fff" stroke-width="2.5" stroke-linecap="round" stroke-linejoin="round"/>
  <rect x="294" y="340" width="48" height="6" rx="3" fill="#a7f3d0"/>
  <circle cx="278" cy="368" r="10" fill="#10b981"/>
  <path d="M274 368l3 3 6-7" stroke="#fff" stroke-width="2.5" stroke-linecap="round" stroke-linejoin="round"/>
  <rect x="294" y="362" width="40" height="6" rx="3" fill="#a7f3d0"/>

  <!-- person left -->
  <circle cx="230" cy="220" r="34" fill="#fcd9bd"/>
  <path d="M196 254c8 34 60 34 68 0" fill="#047857"/>
  <circle cx="218" cy="214" r="4" fill="#1f2937"/>
  <circle cx="242" cy="214" r="4" fill="#1f2937"/>
  <path d="M224 228c6 4 16 4 22 0" stroke="#b45309" stroke-width="3" stroke-linecap="round"/>
  <path d="M214 188c0-18 16-28 32-22 12 4 18 18 12 32" fill="#1f2937"/>

  <!-- person center -->
  <circle cx="400" cy="190" r="38" fill="#f5cba7"/>
  <path d="M354 228c10 42 82 42 92 0" fill="#059669"/>
  <circle cx="384" cy="184" r="5" fill="#1f2937"/>
  <circle cx="416" cy="184" r="5" fill="#1f2937"/>
  <path d="M392 200c8 5 20 5 28 0" stroke="#b45309" stroke-width="3" stroke-linecap="round"/>
  <path d="M372 152c0-20 18-32 36-24 14 6 20 22 12 38" fill="#374151"/>
  <rect x="392" y="228" width="16" height="28" rx="8" fill="#f5cba7"/>

  <!-- person right -->
  <circle cx="560" cy="230" r="32" fill="#f0c9a6"/>
  <path d="M528 262c8 30 56 30 64 0" fill="#065f46"/>
  <circle cx="548" cy="224" r="4" fill="#1f2937"/>
  <circle cx="572" cy="224" r="4" fill="#1f2937"/>
  <path d="M554 238c5 3 14 3 19 0" stroke="#b45309" stroke-width="3" stroke-linecap="round"/>
  <path d="M544 200c0-16 14-24 28-18 10 4 16 16 10 28" fill="#111827"/>

  <!-- speech bubble -->
  <rect x="500" y="130" width="120" height="56" rx="16" fill="#ffffff" stroke="#10b981" stroke-width="4"/>
  <path d="M532 186l8 18 10-18" fill="#ffffff" stroke="#10b981" stroke-width="4" stroke-linejoin="round"/>
  <rect x="518" y="150" width="36" height="8" rx="4" fill="#10b981"/>
  <rect x="518" y="166" width="84" height="6" rx="3" fill="#d1fae5"/>
</svg>
