<svg xmlns="http://www.w3.org/2000/svg" viewBox="0 0 800 600" fill="none" role="img" aria-label="Test planning and strategy session">
  <rect width="800" height="600" fill="#ecfdf5"/>
  <circle cx="680" cy="110" r="54" fill="#a7f3d0" opacity="0.5"/>
  <circle cx="120" cy="500" r="80" fill="#6ee7b7" opacity="0.28"/>
  <ellipse cx="400" cy="540" rx="300" ry="30" fill="#059669" opacity="0.1"/>

  <!-- strategy board -->
  <rect x="120" y="90" width="360" height="250" rx="18" fill="#ffffff" stroke="#10b981" stroke-width="5"/>
  <rect x="150" y="120" width="140" height="14" rx="7" fill="#059669"/>
  <rect x="150" y="150" width="220" height="8" rx="4" fill="#d1fae5"/>
  <rect x="150" y="170" width="190" height="8" rx="4" fill="#d1fae5"/>

  <!-- matrix grid -->
  <rect x="150" y="200" width="300" height="110" rx="12" fill="#f0fdf4" stroke="#a7f3d0" stroke-width="3"/>
  <line x1="250" y1="200" x2="250" y2="310" stroke="#a7f3d0" stroke-width="3"/>
  <line x1="350" y1="200" x2="350" y2="310" stroke="#a7f3d0" stroke-width="3"/>
  <line x1="150" y1="255" x2="450" y2="255" stroke="#a7f3d0" stroke-width="3"/>
  <rect x="168" y="214" width="64" height="28" rx="8" fill="#10b981"/>
  <rect x="268" y="214" width="64" height="28" rx="8" fill="#34d399"/>
  <rect x="368" y="214" width="64" height="28" rx="8" fill="#6ee7b7"/>
  <circle cx="190" cy="282" r="12" fill="#10b981"/>
  <path d="M184 282l4 4 8-10" stroke="#fff" stroke-width="2.5" stroke-linecap="round" stroke-linejoin="round"/>
  <circle cx="290" cy="282" r="12" fill="#10b981"/>
  <path d="M284 282l4 4 8-10" stroke="#fff" stroke-width="2.5" stroke-linecap="round" stroke-linejoin="round"/>
  <rect x="372" y="270" width="52" height="24" rx="8" fill="#fef3c7" stroke="#f59e0b" stroke-width="2"/>

  <!-- desk -->
  <rect x="430" y="360" width="280" height="18" rx="9" fill="#047857"/>
  <rect x="450" y="378" width="22" height="88" rx="6" fill="#065f46"/>
  <rect x="668" y="378" width="22" height="88" rx="6" fill="#065f46"/>

  <!-- test plan document -->
  <rect x="470" y="270" width="150" height="190" rx="16" fill="#ffffff" stroke="#10b981" stroke-width="4"/>
  <rect x="494" y="296" width="88" height="12" rx="6" fill="#059669"/>
  <rect x="494" y="322" width="102" height="7" rx="3.5" fill="#d1fae5"/>
  <rect x="494" y="338" width="92" height="7" rx="3.5" fill="#d1fae5"/>
  <rect x="494" y="354" width="98" height="7" rx="3.5" fill="#d1fae5"/>
  <circle cx="506" cy="386" r="10" fill="#10b981"/>
  <path d="M502 386l3 3 6-7" stroke="#fff" stroke-width="2.5" stroke-linecap="round" stroke-linejoin="round"/>
  <rect x="522" y="380" width="72" height="7" rx="3.5" fill="#a7f3d0"/>
  <circle cx="506" cy="410" r="10" fill="#10b981"/>
  <path d="M502 410l3 3 6-7" stroke="#fff" stroke-width="2.5" stroke-linecap="round" stroke-linejoin="round"/>
  <rect x="522" y="404" width="58" height="7" rx="3.5" fill="#a7f3d0"/>
  <circle cx="506" cy="434" r="10" fill="#e5e7eb" stroke="#9ca3af" stroke-width="2"/>
  <rect x="522" y="428" width="64" height="7" rx="3.5" fill="#e5e7eb"/>

  <!-- magnifying glass -->
  <circle cx="640" cy="320" r="34" fill="#ffffff" stroke="#047857" stroke-width="6"/>
  <line x1="664" y1="344" x2="696" y2="376" stroke="#047857" stroke-width="8" stroke-linecap="round"/>

  <!-- planner -->
  <circle cx="560" cy="210" r="36" fill="#fcd9bd"/>
  <path d="M524 244c8 36 64 36 72 0" fill="#059669"/>
  <circle cx="548" cy="204" r="4.5" fill="#1f2937"/>
  <circle cx="572" cy="204" r="4.5" fill="#1f2937"/>
  <path d="M554 218c6 4 16 4 22 0" stroke="#b45309" stroke-width="3" stroke-linecap="round"/>
  <path d="M542 176c0-18 16-28 32-22 12 4 18 18 12 32" fill="#374151"/>
  <path d="M520 250l18-36 24 10 36-48" stroke="#047857" stroke-width="5" stroke-linecap="round" stroke-linejoin="round"/>

  <!-- sticky notes -->
  <rect x="510" y="118" width="72" height="72" rx="8" fill="#fef08a" transform="rotate(8 546 154)"/>
  <rect x="528" y="136" width="36" height="6" rx="3" fill="#ca8a04" transform="rotate(8 546 154)"/>
  <rect x="528" y="150" width="48" height="5" rx="2.5" fill="#fde047" transform="rotate(8 546 154)"/>
  <rect x="590" y="148" width="68" height="68" rx="8" fill="#bfdbfe" transform="rotate(-6 624 182)"/>
  <rect x="606" y="166" width="34" height="6" rx="3" fill="#2563eb" transform="rotate(-6 624 182)"/>
</svg>
