<svg xmlns="http://www.w3.org/2000/svg" viewBox="0 0 400 400" fill="none" role="img" aria-label="Automated test case code with passing run">
  <rect width="400" height="400" rx="24" fill="#0f172a"/>
  <rect x="24" y="24" width="352" height="36" rx="10" fill="#1e293b"/>
  <circle cx="44" cy="42" r="7" fill="#ef4444"/>
  <circle cx="66" cy="42" r="7" fill="#f59e0b"/>
  <circle cx="88" cy="42" r="7" fill="#22c55e"/>
  <rect x="120" y="34" width="180" height="16" rx="8" fill="#334155"/>
  <text x="36" y="98" fill="#64748b" font-family="monospace" font-size="13">1</text>
  <text x="56" y="98" fill="#c084fc" font-family="monospace" font-size="14">describe</text>
  <text x="132" y="98" fill="#e2e8f0" font-family="monospace" font-size="14">('Checkout', () =&gt; {</text>
  <text x="36" y="126" fill="#64748b" font-family="monospace" font-size="13">2</text>
  <text x="56" y="126" fill="#c084fc" font-family="monospace" font-size="14">  it</text>
  <text x="88" y="126" fill="#e2e8f0" font-family="monospace" font-size="14">('applies discount', async () =&gt; {</text>
  <text x="36" y="154" fill="#64748b" font-family="monospace" font-size="13">3</text>
  <text x="56" y="154" fill="#e2e8f0" font-family="monospace" font-size="14">    await page.goto('/cart');</text>
  <text x="36" y="182" fill="#64748b" font-family="monospace" font-size="13">4</text>
  <text x="56" y="182" fill="#e2e8f0" font-family="monospace" font-size="14">    await expect(total).toHaveText('$89');</text>
  <text x="36" y="210" fill="#64748b" font-family="monospace" font-size="13">5</text>
  <text x="56" y="210" fill="#e2e8f0" font-family="monospace" font-size="14">  });</text>
  <text x="36" y="238" fill="#64748b" font-family="monospace" font-size="13">6</text>
  <text x="56" y="238" fill="#e2e8f0" font-family="monospace" font-size="14">});</text>
  <rect x="24" y="268" width="352" height="108" rx="14" fill="#052e16" stroke="#16a34a" stroke-width="3"/>
  <circle cx="52" cy="298" r="10" fill="#22c55e"/>
  <path d="M47 298l3 3 7-8" stroke="#fff" stroke-width="2.5" stroke-linecap="round" stroke-linejoin="round"/>
  <text x="72" y="303" fill="#86efac" font-family="monospace" font-size="15" font-weight="700">Running checkout.spec.ts</text>
  <text x="72" y="332" fill="#bbf7d0" font-family="monospace" font-size="13">PASS applies discount (142ms)</text>
  <text x="72" y="356" fill="#4ade80" font-family="monospace" font-size="14" font-weight="700">1 passed</text>
</svg>
